<svg enable-background="new 0 0 128 128" viewBox="0 0 128 160" xmlns="http://www.w3.org/2000/svg"><path d="m17 79.2 2.1 2.1c.1.1.3.2.5.2s.4-.1.5-.2c.3-.3.3-.8 0-1l-2.1-2.1c-.3-.3-.8-.3-1 0s-.3.8 0 1z"/><path d="m24.6 86.9c.1.1.3.2.5.2s.4-.1.5-.2c.3-.3.3-.8 0-1l-2.1-2.1c-.3-.3-.8-.3-1 0-.3.3-.3.8 0 1z"/><path d="m30.2 92.4c.1.1.3.2.5.2s.4-.1.5-.2c.3-.3.3-.8 0-1l-2.1-2.1c-.3-.3-.8-.3-1 0-.3.3-.3.8 0 1z"/><path d="m35.7 98c.1.1.3.2.5.2s.4-.1.5-.2c.3-.3.3-.8 0-1l-2.1-2.1c-.3-.3-.8-.3-1 0-.3.3-.3.8 0 1z"/><path d="m28.6 28.8h61.3c.4 0 .7-.3.7-.7s-.3-.7-.7-.7h-61.3c-.4 0-.7.3-.7.7-.1.3.3.7.7.7z"/><path d="m28.6 35.4h52.2c.4 0 .7-.3.7-.7s-.3-.7-.7-.7h-52.2c-.4 0-.7.3-.7.7-.1.4.3.7.7.7z"/><path d="m68 41.3c0-.4-.3-.7-.7-.7h-38.7c-.4 0-.7.3-.7.7s.3.7.7.7h38.7c.3 0 .7-.3.7-.7z"/><path d="m11.6 39c.4 0 .7-.3.7-.7v-9.3c0-.4-.3-.7-.7-.7s-.7.3-.7.7v9.3c0 .4.3.7.7.7z"/><path d="m11.6 45.1c.4 0 .7-.3.7-.7v-3c0-.4-.3-.7-.7-.7s-.7.3-.7.7v3c0 .4.3.7.7.7z"/><path d="m113.3 34.1c.4 0 .7-.3.7-.7v-9.3c0-.4-.3-.7-.7-.7s-.7.3-.7.7v9.3c-.1.4.3.7.7.7z"/><path d="m113.3 40.2c.4 0 .7-.3.7-.7v-3c0-.4-.3-.7-.7-.7s-.7.3-.7.7v3c-.1.4.3.7.7.7z"/><path d="m97.9 6.8c.1.2.3.2.5.2s.4-.1.5-.2c.3-.3.3-.8 0-1l-1.4-1.4c-.3-.3-.8-.3-1 0s-.3.8 0 1z"/><path d="m102.5 11.4c.1.1.3.2.5.2s.4-.1.5-.2c.3-.3.3-.8 0-1l-1.4-1.4c-.3-.3-.8-.3-1 0-.3.3-.3.8 0 1z"/><path d="m97 11.6c.2 0 .4-.1.5-.2l1.4-1.4c.3-.3.3-.8 0-1-.3-.3-.8-.3-1 0l-1.4 1.4c-.3.3-.3.8 0 1 .1.2.3.2.5.2z"/><path d="m101.6 7c.2 0 .4-.1.5-.2l1.4-1.4c.3-.3.3-.8 0-1-.3-.3-.8-.3-1 0l-1.5 1.4c-.3.3-.3.8 0 1 .2.2.4.2.6.2z"/><path d="m6.3 99.2c-.3-.3-.8-.3-1 0-.3.3-.3.8 0 1l1.4 1.4c.1.1.3.2.5.2s.4-.1.5-.2c.3-.3.3-.8 0-1z"/><path d="m10.9 103.8c-.3-.3-.8-.3-1 0-.3.3-.3.8 0 1l1.4 1.4c.1.1.3.2.5.2s.4-.1.5-.2c.3-.3.3-.8 0-1z"/><path d="m6.7 103.8-1.4 1.4c-.3.3-.3.8 0 1 .1.1.3.2.5.2s.4-.1.5-.2l1.4-1.4c.3-.3.3-.8 0-1-.2-.3-.7-.3-1 0z"/><path d="m11.3 99.2-1.4 1.4c-.3.3-.3.8 0 1 .1.1.3.2.5.2s.4-.1.5-.2l1.4-1.4c.3-.3.3-.8 0-1s-.7-.3-1 0z"/><path d="m25.7 13.2c2 0 3.6-1.6 3.6-3.6s-1.6-3.6-3.6-3.6-3.6 1.6-3.6 3.6 1.6 3.6 3.6 3.6zm0-5.8c1.2 0 2.1 1 2.1 2.1 0 1.2-1 2.1-2.1 2.1-1.2 0-2.1-1-2.1-2.1s.9-2.1 2.1-2.1z"/><path d="m115 107.2c0-2-1.6-3.6-3.6-3.6s-3.6 1.6-3.6 3.6 1.6 3.6 3.6 3.6c1.9 0 3.6-1.6 3.6-3.6zm-3.7 2.2c-1.2 0-2.1-1-2.1-2.1 0-1.2 1-2.1 2.1-2.1 1.2 0 2.1 1 2.1 2.1.1 1.1-.9 2.1-2.1 2.1z"/><path d="m67.6 10.5c0 .4.3.7.7.7h11.2c.4 0 .7-.3.7-.7s-.3-.7-.7-.7h-11.1c-.4 0-.8.3-.8.7z"/><path d="m61.1 11.3h3.6c.4 0 .7-.3.7-.7s-.3-.7-.7-.7h-3.6c-.4 0-.7.3-.7.7-.1.3.3.7.7.7z"/><path d="m61.1 7.4h7.8c.4 0 .7-.3.7-.7s-.3-.7-.7-.7h-7.8c-.4 0-.7.3-.7.7-.1.4.3.7.7.7z"/><path d="m72.2 7.4h2.5c.4 0 .7-.3.7-.7s-.3-.7-.7-.7h-2.5c-.4 0-.7.3-.7.7s.3.7.7.7z"/><path d="m116.4 122.4h-11.2c-.4 0-.7.3-.7.7s.3.7.7.7h11.2c.4 0 .7-.3.7-.7s-.3-.7-.7-.7z"/><path d="m101.6 122.4h-3.6c-.4 0-.7.3-.7.7s.3.7.7.7h3.6c.4 0 .7-.3.7-.7s-.3-.7-.7-.7z"/><path d="m98 120h7.8c.4 0 .7-.3.7-.7s-.3-.7-.7-.7h-7.8c-.4 0-.7.3-.7.7-.1.4.3.7.7.7z"/><path d="m109.1 118.5c-.4 0-.7.3-.7.7s.3.7.7.7h2.5c.4 0 .7-.3.7-.7s-.3-.7-.7-.7z"/><path d="m124.7 53.8h-6.6v-2.2c0-.4-.3-.7-.7-.7s-.7.3-.7.7v2.2h-5.5v-2.2c0-.4-.3-.7-.7-.7s-.7.3-.7.7v2.2h-5.5v-2.2c0-.4-.3-.7-.7-.7s-.7.3-.7.7v2.2h-2.1v-31.2c0-3.4-2.8-6.1-6.1-6.1h-70.8c-3.4 0-6.1 2.8-6.1 6.1v49.4l-2.6-2.6-2.8-2.8-3.4-3.4c-.9-.9-2.2-1.5-3.5-1.5s-2.6.5-3.5 1.5c-1.9 1.9-1.9 5.1 0 7l3.4 3.4 12.4 12.4v29.8c0 3.4 2.8 6.1 6.1 6.1h58.3.1.2c.1 0 .2-.1.2-.2l17.7-17.7c.1-.1.1-.1.1-.2 0 0 0 0 0-.1s0-.1 0-.2v-5.2h24c1.5 0 2.8-1.2 2.8-2.8v-39c.2-1.5-1-2.7-2.6-2.7zm-81.3 46.2 2.8 7.4-7.4-2.8zm-5.8 3.7-27.9-27.9 4.9-4.9 27.9 27.9zm-30.7-30.7 4.9-4.9 1.8 1.8-4.9 4.9zm-3.9-8.8c.7-.7 1.5-1 2.4-1s1.8.4 2.5 1l2.9 2.9-5 4.9-2.8-2.9c-1.4-1.3-1.4-3.5 0-4.9zm80 55.2v-11.2c0-2.2 1.8-4.1 4.1-4.1h11.2zm16.2-16.7h-12.2c-3.1 0-5.5 2.5-5.5 5.5v12.2h-57.6c-2.6 0-4.7-2.1-4.7-4.7v-28.2l17.8 17.8s.1.1.1.1l.3.3 9.7 3.7h.3c.2 0 .4-.1.5-.2.2-.2.3-.5.2-.8l-3.7-9.7c-.1-.2-.2-.3-.3-.4 0 0 0-.1-.1-.1l-24.7-24.7v-50.9c0-2.6 2.1-4.7 4.7-4.7h70.6c2.6 0 4.7 2.1 4.7 4.7v31.2h-1.9v-2.2c0-.4-.3-.7-.7-.7s-.7.3-.7.7v2.2h-5.5v-2.2c0-.4-.3-.7-.7-.7s-.7.3-.7.7v2.2h-5.5v-2.2c0-.4-.3-.7-.7-.7s-.7.3-.7.7v2.2h-5.5v-2.2c0-.4-.3-.7-.7-.7s-.7.3-.7.7v2.2h-5.5v-2.2c0-.4-.3-.7-.7-.7s-.7.3-.7.7v2.2h-5.5v-2.2c0-.4-.3-.7-.7-.7s-.7.3-.7.7v2.2h-6.6c-1.5 0-2.8 1.2-2.8 2.8v38.9c0 1.5 1.2 2.8 2.8 2.8h44.8v4.4zm26.8-7.2c0 .7-.6 1.3-1.3 1.3h-70.3c-.7 0-1.3-.6-1.3-1.3v-39c0-.7.6-1.3 1.3-1.3h6.6v4.2c0 .4.3.7.7.7s.7-.3.7-.7v-4.2h5.6v4.2c0 .4.3.7.7.7s.7-.3.7-.7v-4.2h5.5v4.2c0 .4.3.7.7.7s.7-.3.7-.7v-4.2h5.5v4.2c0 .4.3.7.7.7s.7-.3.7-.7v-4.2h5.5v4.2c0 .4.3.7.7.7s.7-.3.7-.7v-4.2h5.5v4.2c0 .4.3.7.7.7s.7-.3.7-.7v-4.2h5.5v4.2c0 .4.3.7.7.7s.7-.3.7-.7v-4.2h5.5v4.2c0 .4.3.7.7.7s.7-.3.7-.7v-4.2h5.5v4.2c0 .4.3.7.7.7s.7-.3.7-.7v-4.2h6.6c.7 0 1.3.6 1.3 1.3v39z"/><path d="m121.2 89.6h-53.8c-.4 0-.7.3-.7.7s.3.7.7.7h53.9c.4 0 .7-.3.7-.7s-.4-.7-.8-.7z"/><path d="m121.2 83.9h-61.7c-.4 0-.7.3-.7.7s.3.7.7.7h61.7c.4 0 .7-.3.7-.7.1-.3-.3-.7-.7-.7z"/><path d="m121.2 78.3h-43.9c-.4 0-.7.3-.7.7s.3.7.7.7h43.9c.4 0 .7-.3.7-.7.1-.4-.3-.7-.7-.7z"/><g font-family="'Helvetica Neue', Helvetica, Arial-Unicode, Arial, Sans-serif" font-size="5" font-weight="bold"><text y="143">Created by Creative Stall</text><text y="148">from the Noun Project</text></g></svg>